<mxfile host="app.diagrams.net" agent="Mozilla/5.0 (Windows NT 10.0; Win64; x64) AppleWebKit/537.36 (KHTML, like Gecko) Chrome/140.0.0.0 Safari/537.36" version="28.2.5">
  <diagram name="1 oldal" id="mBNASkrIfyRyGm8f0sjV">
    <mxGraphModel dx="2696" dy="1342" grid="1" gridSize="10" guides="1" tooltips="1" connect="1" arrows="1" fold="1" page="1" pageScale="1" pageWidth="827" pageHeight="1169" math="0" shadow="0">
      <root>
        <mxCell id="0" />
        <mxCell id="1" parent="0" />
        <mxCell id="H8bIReUODu8LjJ2JrYgc-1" value="Vendeglatas" style="ellipse;whiteSpace=wrap;html=1;align=center;" parent="1" vertex="1">
          <mxGeometry x="1210" y="20" width="150" height="70" as="geometry" />
        </mxCell>
        <mxCell id="H8bIReUODu8LjJ2JrYgc-2" value="Etterem" style="ellipse;shape=doubleEllipse;margin=3;whiteSpace=wrap;html=1;align=center;" parent="1" vertex="1">
          <mxGeometry x="240" y="160" width="100" height="40" as="geometry" />
        </mxCell>
        <mxCell id="H8bIReUODu8LjJ2JrYgc-3" value="Cim" style="ellipse;whiteSpace=wrap;html=1;align=center;" parent="1" vertex="1">
          <mxGeometry x="240" y="280" width="100" height="40" as="geometry" />
        </mxCell>
        <mxCell id="H8bIReUODu8LjJ2JrYgc-4" value="Foszakacs" style="ellipse;shape=doubleEllipse;margin=3;whiteSpace=wrap;html=1;align=center;" parent="1" vertex="1">
          <mxGeometry x="580" y="160" width="100" height="40" as="geometry" />
        </mxCell>
        <mxCell id="H8bIReUODu8LjJ2JrYgc-5" value="Szakacs" style="ellipse;shape=doubleEllipse;margin=3;whiteSpace=wrap;html=1;align=center;" parent="1" vertex="1">
          <mxGeometry x="1010" y="160" width="100" height="40" as="geometry" />
        </mxCell>
        <mxCell id="H8bIReUODu8LjJ2JrYgc-6" value="Vendeg" style="ellipse;shape=doubleEllipse;margin=3;whiteSpace=wrap;html=1;align=center;" parent="1" vertex="1">
          <mxGeometry x="1840" y="160" width="100" height="40" as="geometry" />
        </mxCell>
        <mxCell id="H8bIReUODu8LjJ2JrYgc-7" value="Gyakornok" style="ellipse;shape=doubleEllipse;margin=3;whiteSpace=wrap;html=1;align=center;" parent="1" vertex="1">
          <mxGeometry x="1420" y="160" width="100" height="40" as="geometry" />
        </mxCell>
        <mxCell id="H8bIReUODu8LjJ2JrYgc-8" value="Rendeles" style="ellipse;shape=doubleEllipse;margin=3;whiteSpace=wrap;html=1;align=center;" parent="1" vertex="1">
          <mxGeometry x="2200" y="160" width="100" height="40" as="geometry" />
        </mxCell>
        <mxCell id="H8bIReUODu8LjJ2JrYgc-9" value="&lt;u&gt;e_kod&lt;/u&gt;" style="shape=rhombus;perimeter=rhombusPerimeter;whiteSpace=wrap;html=1;align=center;" parent="1" vertex="1">
          <mxGeometry y="180" width="120" height="60" as="geometry" />
        </mxCell>
        <mxCell id="H8bIReUODu8LjJ2JrYgc-14" value="" style="endArrow=none;html=1;rounded=0;exitX=0.731;exitY=0.012;exitDx=0;exitDy=0;exitPerimeter=0;entryX=0;entryY=0;entryDx=0;entryDy=0;" parent="1" source="H8bIReUODu8LjJ2JrYgc-2" edge="1" target="H8bIReUODu8LjJ2JrYgc-1">
          <mxGeometry relative="1" as="geometry">
            <mxPoint x="430" y="150" as="sourcePoint" />
            <mxPoint x="600" y="80" as="targetPoint" />
          </mxGeometry>
        </mxCell>
        <mxCell id="H8bIReUODu8LjJ2JrYgc-15" value="" style="endArrow=none;html=1;rounded=0;exitX=1;exitY=0;exitDx=0;exitDy=0;entryX=0;entryY=0.5;entryDx=0;entryDy=0;" parent="1" source="H8bIReUODu8LjJ2JrYgc-4" target="H8bIReUODu8LjJ2JrYgc-1" edge="1">
          <mxGeometry relative="1" as="geometry">
            <mxPoint x="470" y="160" as="sourcePoint" />
            <mxPoint x="757" y="80" as="targetPoint" />
          </mxGeometry>
        </mxCell>
        <mxCell id="H8bIReUODu8LjJ2JrYgc-16" value="" style="endArrow=none;html=1;rounded=0;exitX=1;exitY=0;exitDx=0;exitDy=0;entryX=0;entryY=1;entryDx=0;entryDy=0;" parent="1" source="H8bIReUODu8LjJ2JrYgc-5" edge="1" target="H8bIReUODu8LjJ2JrYgc-1">
          <mxGeometry relative="1" as="geometry">
            <mxPoint x="600" y="230" as="sourcePoint" />
            <mxPoint x="670" y="110" as="targetPoint" />
          </mxGeometry>
        </mxCell>
        <mxCell id="H8bIReUODu8LjJ2JrYgc-17" value="Nev" style="ellipse;whiteSpace=wrap;html=1;align=center;" parent="1" vertex="1">
          <mxGeometry x="130" y="280" width="100" height="40" as="geometry" />
        </mxCell>
        <mxCell id="H8bIReUODu8LjJ2JrYgc-18" value="Csillag" style="ellipse;whiteSpace=wrap;html=1;align=center;" parent="1" vertex="1">
          <mxGeometry x="350" y="280" width="100" height="40" as="geometry" />
        </mxCell>
        <mxCell id="H8bIReUODu8LjJ2JrYgc-20" value="Utca" style="ellipse;whiteSpace=wrap;html=1;align=center;" parent="1" vertex="1">
          <mxGeometry x="240" y="400" width="100" height="40" as="geometry" />
        </mxCell>
        <mxCell id="H8bIReUODu8LjJ2JrYgc-21" value="Hazszam" style="ellipse;whiteSpace=wrap;html=1;align=center;" parent="1" vertex="1">
          <mxGeometry x="350" y="400" width="100" height="40" as="geometry" />
        </mxCell>
        <mxCell id="H8bIReUODu8LjJ2JrYgc-23" value="" style="endArrow=none;html=1;rounded=0;exitX=0.5;exitY=0;exitDx=0;exitDy=0;entryX=0;entryY=1;entryDx=0;entryDy=0;" parent="1" target="H8bIReUODu8LjJ2JrYgc-2" edge="1">
          <mxGeometry relative="1" as="geometry">
            <mxPoint x="180" y="280" as="sourcePoint" />
            <mxPoint x="250" y="230" as="targetPoint" />
          </mxGeometry>
        </mxCell>
        <mxCell id="H8bIReUODu8LjJ2JrYgc-24" value="" style="endArrow=none;html=1;rounded=0;exitX=0.5;exitY=0;exitDx=0;exitDy=0;entryX=0.5;entryY=1;entryDx=0;entryDy=0;entryPerimeter=0;" parent="1" source="H8bIReUODu8LjJ2JrYgc-3" target="H8bIReUODu8LjJ2JrYgc-2" edge="1">
          <mxGeometry relative="1" as="geometry">
            <mxPoint x="210" y="286" as="sourcePoint" />
            <mxPoint x="285" y="200" as="targetPoint" />
          </mxGeometry>
        </mxCell>
        <mxCell id="H8bIReUODu8LjJ2JrYgc-25" value="" style="endArrow=none;html=1;rounded=0;exitX=0.5;exitY=0;exitDx=0;exitDy=0;entryX=1;entryY=1;entryDx=0;entryDy=0;" parent="1" target="H8bIReUODu8LjJ2JrYgc-2" edge="1">
          <mxGeometry relative="1" as="geometry">
            <mxPoint x="399.5" y="280" as="sourcePoint" />
            <mxPoint x="399.5" y="200" as="targetPoint" />
          </mxGeometry>
        </mxCell>
        <mxCell id="H8bIReUODu8LjJ2JrYgc-26" value="" style="endArrow=none;html=1;rounded=0;exitX=0.5;exitY=0;exitDx=0;exitDy=0;entryX=0.5;entryY=1;entryDx=0;entryDy=0;entryPerimeter=0;" parent="1" source="H8bIReUODu8LjJ2JrYgc-20" edge="1">
          <mxGeometry relative="1" as="geometry">
            <mxPoint x="289.5" y="400" as="sourcePoint" />
            <mxPoint x="289.5" y="320" as="targetPoint" />
          </mxGeometry>
        </mxCell>
        <mxCell id="H8bIReUODu8LjJ2JrYgc-27" value="Varos" style="ellipse;whiteSpace=wrap;html=1;align=center;" parent="1" vertex="1">
          <mxGeometry x="130" y="400" width="100" height="40" as="geometry" />
        </mxCell>
        <mxCell id="H8bIReUODu8LjJ2JrYgc-28" value="" style="endArrow=none;html=1;rounded=0;exitX=0.5;exitY=0;exitDx=0;exitDy=0;entryX=0.5;entryY=1;entryDx=0;entryDy=0;" parent="1" source="H8bIReUODu8LjJ2JrYgc-27" target="H8bIReUODu8LjJ2JrYgc-3" edge="1">
          <mxGeometry relative="1" as="geometry">
            <mxPoint x="260.5" y="390" as="sourcePoint" />
            <mxPoint x="260" y="310" as="targetPoint" />
          </mxGeometry>
        </mxCell>
        <mxCell id="H8bIReUODu8LjJ2JrYgc-29" value="" style="endArrow=none;html=1;rounded=0;exitX=0.5;exitY=0;exitDx=0;exitDy=0;entryX=0.5;entryY=1;entryDx=0;entryDy=0;" parent="1" source="H8bIReUODu8LjJ2JrYgc-21" target="H8bIReUODu8LjJ2JrYgc-3" edge="1">
          <mxGeometry relative="1" as="geometry">
            <mxPoint x="330.5" y="390" as="sourcePoint" />
            <mxPoint x="330" y="310" as="targetPoint" />
          </mxGeometry>
        </mxCell>
        <mxCell id="H8bIReUODu8LjJ2JrYgc-32" value="&lt;u&gt;F_kod&lt;/u&gt;" style="shape=rhombus;perimeter=rhombusPerimeter;whiteSpace=wrap;html=1;align=center;" parent="1" vertex="1">
          <mxGeometry x="450" y="170" width="120" height="60" as="geometry" />
        </mxCell>
        <mxCell id="H8bIReUODu8LjJ2JrYgc-33" value="Eletkor" style="ellipse;whiteSpace=wrap;html=1;align=center;" parent="1" vertex="1">
          <mxGeometry x="590" y="280" width="100" height="40" as="geometry" />
        </mxCell>
        <mxCell id="H8bIReUODu8LjJ2JrYgc-34" value="Nev" style="ellipse;whiteSpace=wrap;html=1;align=center;" parent="1" vertex="1">
          <mxGeometry x="480" y="280" width="100" height="40" as="geometry" />
        </mxCell>
        <mxCell id="H8bIReUODu8LjJ2JrYgc-36" value="Vegzettseg" style="ellipse;shape=doubleEllipse;margin=3;whiteSpace=wrap;html=1;align=center;" parent="1" vertex="1">
          <mxGeometry x="700" y="280" width="100" height="40" as="geometry" />
        </mxCell>
        <mxCell id="H8bIReUODu8LjJ2JrYgc-37" value="&lt;u&gt;E-F&lt;/u&gt;" style="shape=rhombus;perimeter=rhombusPerimeter;whiteSpace=wrap;html=1;align=center;" parent="1" vertex="1">
          <mxGeometry x="690" y="170" width="120" height="60" as="geometry" />
        </mxCell>
        <mxCell id="HnkrCqAyI4HCeEIXofI7-10" value="&lt;u&gt;Sz_kod&lt;/u&gt;" style="shape=rhombus;perimeter=rhombusPerimeter;whiteSpace=wrap;html=1;align=center;" vertex="1" parent="1">
          <mxGeometry x="880" y="180" width="120" height="60" as="geometry" />
        </mxCell>
        <mxCell id="HnkrCqAyI4HCeEIXofI7-11" value="&lt;u&gt;E-Sz&lt;/u&gt;" style="shape=rhombus;perimeter=rhombusPerimeter;whiteSpace=wrap;html=1;align=center;" vertex="1" parent="1">
          <mxGeometry x="1121" y="180" width="120" height="60" as="geometry" />
        </mxCell>
        <mxCell id="HnkrCqAyI4HCeEIXofI7-12" value="Nev" style="ellipse;whiteSpace=wrap;html=1;align=center;" vertex="1" parent="1">
          <mxGeometry x="900" y="280" width="100" height="40" as="geometry" />
        </mxCell>
        <mxCell id="HnkrCqAyI4HCeEIXofI7-13" value="Reszleg" style="ellipse;whiteSpace=wrap;html=1;align=center;" vertex="1" parent="1">
          <mxGeometry x="1010" y="280" width="100" height="40" as="geometry" />
        </mxCell>
        <mxCell id="HnkrCqAyI4HCeEIXofI7-15" value="Vegzettseg" style="ellipse;shape=doubleEllipse;margin=3;whiteSpace=wrap;html=1;align=center;" vertex="1" parent="1">
          <mxGeometry x="1121" y="280" width="100" height="40" as="geometry" />
        </mxCell>
        <mxCell id="HnkrCqAyI4HCeEIXofI7-16" value="&lt;u&gt;Gy_kod&lt;/u&gt;" style="shape=rhombus;perimeter=rhombusPerimeter;whiteSpace=wrap;html=1;align=center;" vertex="1" parent="1">
          <mxGeometry x="1290" y="180" width="120" height="60" as="geometry" />
        </mxCell>
        <mxCell id="HnkrCqAyI4HCeEIXofI7-17" value="Nev" style="ellipse;whiteSpace=wrap;html=1;align=center;" vertex="1" parent="1">
          <mxGeometry x="1310" y="280" width="100" height="40" as="geometry" />
        </mxCell>
        <mxCell id="HnkrCqAyI4HCeEIXofI7-18" value="Gyakorlat" style="ellipse;whiteSpace=wrap;html=1;align=center;" vertex="1" parent="1">
          <mxGeometry x="1420" y="280" width="100" height="40" as="geometry" />
        </mxCell>
        <mxCell id="HnkrCqAyI4HCeEIXofI7-19" value="Muszak" style="ellipse;shape=doubleEllipse;margin=3;whiteSpace=wrap;html=1;align=center;" vertex="1" parent="1">
          <mxGeometry x="1530" y="280" width="100" height="40" as="geometry" />
        </mxCell>
        <mxCell id="HnkrCqAyI4HCeEIXofI7-20" value="Kezdete" style="ellipse;whiteSpace=wrap;html=1;align=center;" vertex="1" parent="1">
          <mxGeometry x="1370" y="360" width="100" height="40" as="geometry" />
        </mxCell>
        <mxCell id="HnkrCqAyI4HCeEIXofI7-21" value="Idotartama" style="ellipse;whiteSpace=wrap;html=1;align=center;" vertex="1" parent="1">
          <mxGeometry x="1480" y="360" width="100" height="40" as="geometry" />
        </mxCell>
        <mxCell id="HnkrCqAyI4HCeEIXofI7-22" value="&lt;u&gt;E_Gy&lt;/u&gt;" style="shape=rhombus;perimeter=rhombusPerimeter;whiteSpace=wrap;html=1;align=center;" vertex="1" parent="1">
          <mxGeometry x="1530" y="180" width="120" height="60" as="geometry" />
        </mxCell>
        <mxCell id="HnkrCqAyI4HCeEIXofI7-23" value="&lt;u&gt;V-kod&lt;/u&gt;" style="shape=rhombus;perimeter=rhombusPerimeter;whiteSpace=wrap;html=1;align=center;" vertex="1" parent="1">
          <mxGeometry x="1690" y="180" width="120" height="60" as="geometry" />
        </mxCell>
        <mxCell id="HnkrCqAyI4HCeEIXofI7-24" value="Nev" style="ellipse;whiteSpace=wrap;html=1;align=center;" vertex="1" parent="1">
          <mxGeometry x="1720" y="280" width="100" height="40" as="geometry" />
        </mxCell>
        <mxCell id="HnkrCqAyI4HCeEIXofI7-25" value="Eletkor" style="ellipse;whiteSpace=wrap;html=1;align=center;" vertex="1" parent="1">
          <mxGeometry x="1840" y="280" width="100" height="40" as="geometry" />
        </mxCell>
        <mxCell id="HnkrCqAyI4HCeEIXofI7-26" value="Cim" style="ellipse;whiteSpace=wrap;html=1;align=center;" vertex="1" parent="1">
          <mxGeometry x="1960" y="280" width="100" height="40" as="geometry" />
        </mxCell>
        <mxCell id="HnkrCqAyI4HCeEIXofI7-27" value="Varos" style="ellipse;whiteSpace=wrap;html=1;align=center;" vertex="1" parent="1">
          <mxGeometry x="1840" y="370" width="100" height="40" as="geometry" />
        </mxCell>
        <mxCell id="HnkrCqAyI4HCeEIXofI7-28" value="Utca" style="ellipse;whiteSpace=wrap;html=1;align=center;" vertex="1" parent="1">
          <mxGeometry x="1960" y="370" width="100" height="40" as="geometry" />
        </mxCell>
        <mxCell id="HnkrCqAyI4HCeEIXofI7-29" value="Hazszam" style="ellipse;whiteSpace=wrap;html=1;align=center;" vertex="1" parent="1">
          <mxGeometry x="2080" y="370" width="100" height="40" as="geometry" />
        </mxCell>
        <mxCell id="HnkrCqAyI4HCeEIXofI7-30" value="&lt;u&gt;E_V_V&lt;/u&gt;" style="shape=rhombus;perimeter=rhombusPerimeter;whiteSpace=wrap;html=1;align=center;" vertex="1" parent="1">
          <mxGeometry x="2060" y="180" width="120" height="60" as="geometry" />
        </mxCell>
        <mxCell id="HnkrCqAyI4HCeEIXofI7-31" value="Osszeg" style="ellipse;whiteSpace=wrap;html=1;align=center;" vertex="1" parent="1">
          <mxGeometry x="2130" y="240" width="100" height="40" as="geometry" />
        </mxCell>
        <mxCell id="HnkrCqAyI4HCeEIXofI7-32" value="Etel" style="ellipse;whiteSpace=wrap;html=1;align=center;" vertex="1" parent="1">
          <mxGeometry x="2280" y="240" width="100" height="40" as="geometry" />
        </mxCell>
        <mxCell id="HnkrCqAyI4HCeEIXofI7-34" value="" style="endArrow=none;html=1;rounded=0;exitX=1;exitY=1;exitDx=0;exitDy=0;entryX=0.5;entryY=0;entryDx=0;entryDy=0;" edge="1" parent="1" source="H8bIReUODu8LjJ2JrYgc-1" target="H8bIReUODu8LjJ2JrYgc-7">
          <mxGeometry relative="1" as="geometry">
            <mxPoint x="1540" y="230" as="sourcePoint" />
            <mxPoint x="1700" y="230" as="targetPoint" />
          </mxGeometry>
        </mxCell>
        <mxCell id="HnkrCqAyI4HCeEIXofI7-35" value="" style="endArrow=none;html=1;rounded=0;exitX=1;exitY=0.5;exitDx=0;exitDy=0;entryX=0;entryY=0;entryDx=0;entryDy=0;" edge="1" parent="1" source="H8bIReUODu8LjJ2JrYgc-1" target="H8bIReUODu8LjJ2JrYgc-6">
          <mxGeometry relative="1" as="geometry">
            <mxPoint x="1540" y="230" as="sourcePoint" />
            <mxPoint x="1700" y="230" as="targetPoint" />
          </mxGeometry>
        </mxCell>
        <mxCell id="HnkrCqAyI4HCeEIXofI7-36" value="" style="endArrow=none;html=1;rounded=0;exitX=1;exitY=0;exitDx=0;exitDy=0;entryX=0;entryY=0;entryDx=0;entryDy=0;" edge="1" parent="1" source="H8bIReUODu8LjJ2JrYgc-1" target="H8bIReUODu8LjJ2JrYgc-8">
          <mxGeometry relative="1" as="geometry">
            <mxPoint x="1540" y="230" as="sourcePoint" />
            <mxPoint x="1700" y="230" as="targetPoint" />
          </mxGeometry>
        </mxCell>
        <mxCell id="HnkrCqAyI4HCeEIXofI7-38" value="" style="endArrow=none;html=1;rounded=0;exitX=1;exitY=0;exitDx=0;exitDy=0;entryX=0;entryY=0.5;entryDx=0;entryDy=0;" edge="1" parent="1" source="H8bIReUODu8LjJ2JrYgc-9" target="H8bIReUODu8LjJ2JrYgc-2">
          <mxGeometry relative="1" as="geometry">
            <mxPoint x="230" y="310" as="sourcePoint" />
            <mxPoint x="390" y="310" as="targetPoint" />
          </mxGeometry>
        </mxCell>
        <mxCell id="HnkrCqAyI4HCeEIXofI7-39" value="" style="endArrow=none;html=1;rounded=0;entryX=0;entryY=0.5;entryDx=0;entryDy=0;exitX=1;exitY=0;exitDx=0;exitDy=0;" edge="1" parent="1" source="H8bIReUODu8LjJ2JrYgc-32" target="H8bIReUODu8LjJ2JrYgc-4">
          <mxGeometry relative="1" as="geometry">
            <mxPoint x="520" y="310" as="sourcePoint" />
            <mxPoint x="680" y="310" as="targetPoint" />
          </mxGeometry>
        </mxCell>
        <mxCell id="HnkrCqAyI4HCeEIXofI7-43" value="" style="endArrow=none;html=1;rounded=0;entryX=0;entryY=0;entryDx=0;entryDy=0;exitX=1;exitY=0.5;exitDx=0;exitDy=0;" edge="1" parent="1" source="H8bIReUODu8LjJ2JrYgc-4" target="H8bIReUODu8LjJ2JrYgc-37">
          <mxGeometry relative="1" as="geometry">
            <mxPoint x="660" y="210" as="sourcePoint" />
            <mxPoint x="740" y="260" as="targetPoint" />
          </mxGeometry>
        </mxCell>
        <mxCell id="HnkrCqAyI4HCeEIXofI7-44" value="" style="endArrow=none;html=1;rounded=0;entryX=0.5;entryY=0;entryDx=0;entryDy=0;exitX=1;exitY=1;exitDx=0;exitDy=0;" edge="1" parent="1" source="H8bIReUODu8LjJ2JrYgc-4" target="H8bIReUODu8LjJ2JrYgc-36">
          <mxGeometry relative="1" as="geometry">
            <mxPoint x="530" y="280" as="sourcePoint" />
            <mxPoint x="690" y="280" as="targetPoint" />
          </mxGeometry>
        </mxCell>
        <mxCell id="HnkrCqAyI4HCeEIXofI7-45" value="" style="endArrow=none;html=1;rounded=0;entryX=0.5;entryY=0;entryDx=0;entryDy=0;exitX=0.5;exitY=1;exitDx=0;exitDy=0;" edge="1" parent="1" source="H8bIReUODu8LjJ2JrYgc-4" target="H8bIReUODu8LjJ2JrYgc-33">
          <mxGeometry relative="1" as="geometry">
            <mxPoint x="530" y="280" as="sourcePoint" />
            <mxPoint x="690" y="280" as="targetPoint" />
          </mxGeometry>
        </mxCell>
        <mxCell id="HnkrCqAyI4HCeEIXofI7-46" value="" style="endArrow=none;html=1;rounded=0;entryX=0;entryY=1;entryDx=0;entryDy=0;exitX=0.5;exitY=0;exitDx=0;exitDy=0;" edge="1" parent="1" source="H8bIReUODu8LjJ2JrYgc-34" target="H8bIReUODu8LjJ2JrYgc-4">
          <mxGeometry relative="1" as="geometry">
            <mxPoint x="530" y="280" as="sourcePoint" />
            <mxPoint x="690" y="280" as="targetPoint" />
          </mxGeometry>
        </mxCell>
        <mxCell id="HnkrCqAyI4HCeEIXofI7-47" value="" style="endArrow=none;html=1;rounded=0;entryX=0;entryY=0.5;entryDx=0;entryDy=0;exitX=1;exitY=0;exitDx=0;exitDy=0;" edge="1" parent="1" source="HnkrCqAyI4HCeEIXofI7-10" target="H8bIReUODu8LjJ2JrYgc-5">
          <mxGeometry relative="1" as="geometry">
            <mxPoint x="950" y="330" as="sourcePoint" />
            <mxPoint x="1110" y="330" as="targetPoint" />
          </mxGeometry>
        </mxCell>
        <mxCell id="HnkrCqAyI4HCeEIXofI7-48" value="" style="endArrow=none;html=1;rounded=0;entryX=0;entryY=1;entryDx=0;entryDy=0;exitX=0.5;exitY=0;exitDx=0;exitDy=0;" edge="1" parent="1" source="HnkrCqAyI4HCeEIXofI7-12" target="H8bIReUODu8LjJ2JrYgc-5">
          <mxGeometry relative="1" as="geometry">
            <mxPoint x="950" y="330" as="sourcePoint" />
            <mxPoint x="1110" y="330" as="targetPoint" />
          </mxGeometry>
        </mxCell>
        <mxCell id="HnkrCqAyI4HCeEIXofI7-49" value="" style="endArrow=none;html=1;rounded=0;exitX=0.5;exitY=1;exitDx=0;exitDy=0;entryX=0.5;entryY=0;entryDx=0;entryDy=0;" edge="1" parent="1" source="H8bIReUODu8LjJ2JrYgc-5" target="HnkrCqAyI4HCeEIXofI7-13">
          <mxGeometry relative="1" as="geometry">
            <mxPoint x="950" y="330" as="sourcePoint" />
            <mxPoint x="1110" y="330" as="targetPoint" />
          </mxGeometry>
        </mxCell>
        <mxCell id="HnkrCqAyI4HCeEIXofI7-50" value="" style="endArrow=none;html=1;rounded=0;exitX=1;exitY=1;exitDx=0;exitDy=0;entryX=0.5;entryY=0;entryDx=0;entryDy=0;" edge="1" parent="1" source="H8bIReUODu8LjJ2JrYgc-5" target="HnkrCqAyI4HCeEIXofI7-15">
          <mxGeometry relative="1" as="geometry">
            <mxPoint x="950" y="330" as="sourcePoint" />
            <mxPoint x="1110" y="330" as="targetPoint" />
          </mxGeometry>
        </mxCell>
        <mxCell id="HnkrCqAyI4HCeEIXofI7-51" value="" style="endArrow=none;html=1;rounded=0;exitX=1;exitY=0.5;exitDx=0;exitDy=0;entryX=0;entryY=0;entryDx=0;entryDy=0;" edge="1" parent="1" source="H8bIReUODu8LjJ2JrYgc-5" target="HnkrCqAyI4HCeEIXofI7-11">
          <mxGeometry relative="1" as="geometry">
            <mxPoint x="950" y="330" as="sourcePoint" />
            <mxPoint x="1110" y="330" as="targetPoint" />
          </mxGeometry>
        </mxCell>
        <mxCell id="HnkrCqAyI4HCeEIXofI7-52" value="" style="endArrow=none;html=1;rounded=0;entryX=0.5;entryY=1;entryDx=0;entryDy=0;exitX=0.5;exitY=0;exitDx=0;exitDy=0;" edge="1" parent="1" source="HnkrCqAyI4HCeEIXofI7-18" target="H8bIReUODu8LjJ2JrYgc-7">
          <mxGeometry relative="1" as="geometry">
            <mxPoint x="1420" y="330" as="sourcePoint" />
            <mxPoint x="1580" y="330" as="targetPoint" />
          </mxGeometry>
        </mxCell>
        <mxCell id="HnkrCqAyI4HCeEIXofI7-53" value="" style="endArrow=none;html=1;rounded=0;entryX=0;entryY=1;entryDx=0;entryDy=0;exitX=0.5;exitY=0;exitDx=0;exitDy=0;" edge="1" parent="1" source="HnkrCqAyI4HCeEIXofI7-17" target="H8bIReUODu8LjJ2JrYgc-7">
          <mxGeometry relative="1" as="geometry">
            <mxPoint x="1420" y="330" as="sourcePoint" />
            <mxPoint x="1580" y="330" as="targetPoint" />
          </mxGeometry>
        </mxCell>
        <mxCell id="HnkrCqAyI4HCeEIXofI7-54" value="" style="endArrow=none;html=1;rounded=0;exitX=1;exitY=1;exitDx=0;exitDy=0;entryX=0.5;entryY=0;entryDx=0;entryDy=0;" edge="1" parent="1" source="H8bIReUODu8LjJ2JrYgc-7" target="HnkrCqAyI4HCeEIXofI7-19">
          <mxGeometry relative="1" as="geometry">
            <mxPoint x="1420" y="330" as="sourcePoint" />
            <mxPoint x="1580" y="270" as="targetPoint" />
          </mxGeometry>
        </mxCell>
        <mxCell id="HnkrCqAyI4HCeEIXofI7-55" value="" style="endArrow=none;html=1;rounded=0;exitX=1;exitY=0.5;exitDx=0;exitDy=0;entryX=0;entryY=0;entryDx=0;entryDy=0;" edge="1" parent="1" source="H8bIReUODu8LjJ2JrYgc-7" target="HnkrCqAyI4HCeEIXofI7-22">
          <mxGeometry relative="1" as="geometry">
            <mxPoint x="1420" y="330" as="sourcePoint" />
            <mxPoint x="1580" y="330" as="targetPoint" />
          </mxGeometry>
        </mxCell>
        <mxCell id="HnkrCqAyI4HCeEIXofI7-58" value="" style="endArrow=none;html=1;rounded=0;entryX=0;entryY=0.5;entryDx=0;entryDy=0;exitX=1;exitY=0;exitDx=0;exitDy=0;" edge="1" parent="1" source="HnkrCqAyI4HCeEIXofI7-16" target="H8bIReUODu8LjJ2JrYgc-7">
          <mxGeometry relative="1" as="geometry">
            <mxPoint x="1420" y="330" as="sourcePoint" />
            <mxPoint x="1580" y="330" as="targetPoint" />
          </mxGeometry>
        </mxCell>
        <mxCell id="HnkrCqAyI4HCeEIXofI7-60" value="" style="endArrow=none;html=1;rounded=0;entryX=0.5;entryY=0;entryDx=0;entryDy=0;exitX=1;exitY=1;exitDx=0;exitDy=0;" edge="1" parent="1" source="HnkrCqAyI4HCeEIXofI7-18" target="HnkrCqAyI4HCeEIXofI7-21">
          <mxGeometry relative="1" as="geometry">
            <mxPoint x="1420" y="330" as="sourcePoint" />
            <mxPoint x="1580" y="330" as="targetPoint" />
          </mxGeometry>
        </mxCell>
        <mxCell id="HnkrCqAyI4HCeEIXofI7-61" value="" style="endArrow=none;html=1;rounded=0;exitX=0.5;exitY=0;exitDx=0;exitDy=0;entryX=0;entryY=1;entryDx=0;entryDy=0;" edge="1" parent="1" source="HnkrCqAyI4HCeEIXofI7-20" target="HnkrCqAyI4HCeEIXofI7-18">
          <mxGeometry relative="1" as="geometry">
            <mxPoint x="1420" y="330" as="sourcePoint" />
            <mxPoint x="1580" y="330" as="targetPoint" />
          </mxGeometry>
        </mxCell>
        <mxCell id="HnkrCqAyI4HCeEIXofI7-62" value="" style="endArrow=none;html=1;rounded=0;entryX=0;entryY=0.5;entryDx=0;entryDy=0;exitX=1;exitY=0;exitDx=0;exitDy=0;" edge="1" parent="1" source="HnkrCqAyI4HCeEIXofI7-23" target="H8bIReUODu8LjJ2JrYgc-6">
          <mxGeometry relative="1" as="geometry">
            <mxPoint x="1750" y="330" as="sourcePoint" />
            <mxPoint x="1910" y="330" as="targetPoint" />
          </mxGeometry>
        </mxCell>
        <mxCell id="HnkrCqAyI4HCeEIXofI7-63" value="" style="endArrow=none;html=1;rounded=0;entryX=0;entryY=1;entryDx=0;entryDy=0;exitX=0.5;exitY=0;exitDx=0;exitDy=0;" edge="1" parent="1" source="HnkrCqAyI4HCeEIXofI7-24" target="H8bIReUODu8LjJ2JrYgc-6">
          <mxGeometry relative="1" as="geometry">
            <mxPoint x="1750" y="330" as="sourcePoint" />
            <mxPoint x="1910" y="330" as="targetPoint" />
          </mxGeometry>
        </mxCell>
        <mxCell id="HnkrCqAyI4HCeEIXofI7-64" value="" style="endArrow=none;html=1;rounded=0;entryX=0.5;entryY=1;entryDx=0;entryDy=0;" edge="1" parent="1" source="HnkrCqAyI4HCeEIXofI7-25" target="H8bIReUODu8LjJ2JrYgc-6">
          <mxGeometry relative="1" as="geometry">
            <mxPoint x="1750" y="330" as="sourcePoint" />
            <mxPoint x="1910" y="330" as="targetPoint" />
          </mxGeometry>
        </mxCell>
        <mxCell id="HnkrCqAyI4HCeEIXofI7-65" value="" style="endArrow=none;html=1;rounded=0;exitX=1;exitY=1;exitDx=0;exitDy=0;entryX=0.5;entryY=0;entryDx=0;entryDy=0;" edge="1" parent="1" source="H8bIReUODu8LjJ2JrYgc-6" target="HnkrCqAyI4HCeEIXofI7-26">
          <mxGeometry relative="1" as="geometry">
            <mxPoint x="1750" y="330" as="sourcePoint" />
            <mxPoint x="1910" y="330" as="targetPoint" />
          </mxGeometry>
        </mxCell>
        <mxCell id="HnkrCqAyI4HCeEIXofI7-66" value="" style="endArrow=none;html=1;rounded=0;entryX=0.5;entryY=1;entryDx=0;entryDy=0;exitX=0.5;exitY=0;exitDx=0;exitDy=0;" edge="1" parent="1" source="HnkrCqAyI4HCeEIXofI7-27" target="HnkrCqAyI4HCeEIXofI7-26">
          <mxGeometry relative="1" as="geometry">
            <mxPoint x="1890" y="330" as="sourcePoint" />
            <mxPoint x="2050" y="330" as="targetPoint" />
          </mxGeometry>
        </mxCell>
        <mxCell id="HnkrCqAyI4HCeEIXofI7-67" value="" style="endArrow=none;html=1;rounded=0;entryX=0.5;entryY=0;entryDx=0;entryDy=0;exitX=0.5;exitY=1;exitDx=0;exitDy=0;" edge="1" parent="1" source="HnkrCqAyI4HCeEIXofI7-26" target="HnkrCqAyI4HCeEIXofI7-28">
          <mxGeometry relative="1" as="geometry">
            <mxPoint x="1890" y="330" as="sourcePoint" />
            <mxPoint x="2050" y="330" as="targetPoint" />
          </mxGeometry>
        </mxCell>
        <mxCell id="HnkrCqAyI4HCeEIXofI7-69" value="" style="endArrow=none;html=1;rounded=0;entryX=0;entryY=0.5;entryDx=0;entryDy=0;exitX=1;exitY=0;exitDx=0;exitDy=0;" edge="1" parent="1" source="HnkrCqAyI4HCeEIXofI7-30" target="H8bIReUODu8LjJ2JrYgc-8">
          <mxGeometry relative="1" as="geometry">
            <mxPoint x="2040" y="540" as="sourcePoint" />
            <mxPoint x="2200" y="540" as="targetPoint" />
          </mxGeometry>
        </mxCell>
        <mxCell id="HnkrCqAyI4HCeEIXofI7-70" value="" style="endArrow=none;html=1;rounded=0;entryX=0;entryY=1;entryDx=0;entryDy=0;exitX=0.5;exitY=0;exitDx=0;exitDy=0;" edge="1" parent="1" source="HnkrCqAyI4HCeEIXofI7-31" target="H8bIReUODu8LjJ2JrYgc-8">
          <mxGeometry relative="1" as="geometry">
            <mxPoint x="2040" y="540" as="sourcePoint" />
            <mxPoint x="2200" y="540" as="targetPoint" />
          </mxGeometry>
        </mxCell>
        <mxCell id="HnkrCqAyI4HCeEIXofI7-71" value="" style="endArrow=none;html=1;rounded=0;entryX=1;entryY=1;entryDx=0;entryDy=0;exitX=0.5;exitY=0;exitDx=0;exitDy=0;" edge="1" parent="1" source="HnkrCqAyI4HCeEIXofI7-32" target="H8bIReUODu8LjJ2JrYgc-8">
          <mxGeometry relative="1" as="geometry">
            <mxPoint x="2040" y="540" as="sourcePoint" />
            <mxPoint x="2200" y="540" as="targetPoint" />
          </mxGeometry>
        </mxCell>
        <mxCell id="HnkrCqAyI4HCeEIXofI7-72" value="" style="endArrow=none;html=1;rounded=0;entryX=0.5;entryY=0;entryDx=0;entryDy=0;" edge="1" parent="1" target="HnkrCqAyI4HCeEIXofI7-29">
          <mxGeometry relative="1" as="geometry">
            <mxPoint x="2010" y="320" as="sourcePoint" />
            <mxPoint x="1770" y="540" as="targetPoint" />
          </mxGeometry>
        </mxCell>
      </root>
    </mxGraphModel>
  </diagram>
</mxfile>
